<svg height="147pt" preserveAspectRatio="xMidYMid meet" viewBox="0 0 147 147" width="147pt" xmlns="http://www.w3.org/2000/svg"><g transform="matrix(.1 0 0 -.1 0 147)"><path d="m667 1456c4-5-1-7-10-3-10 3-17 3-17-1s-10-7-22-8c-47-1-97-14-159-41-181-76-324-221-394-398-27-68-32-87-38-150-2-17-7-37-12-45-12-19-14-140-2-133 5 3 6-4 2-16-4-13-2-21 5-21s10-7 6-15c-12-33 35-170 94-274 54-96 181-208 299-267 66-32 178-64 229-64 21 0 24-2 12-10-8-5-11-10-6-10s18 8 28 17c15 13 18 14 13 2-4-10 2-15 17-16 18-2 20 0 8 7-13 8-13 10 1 10 9 0 19-3 23-7 11-12 46-13 46-2 0 5-5 7-12 3-6-4-8-3-4 4 4 6 17 7 34 3 34-10 181 28 254 65 126 64 226 156 295 272 43 72 83 177 83 218 0 12 6 25 13 27 8 4 8 6 0 6-6 1-9 10-6 21s10 17 17 13c6-4 5 1-3 10-11 14-11 20 0 34 12 14 12 16-1 11-11-4-15 2-15 23-1 15 3 25 7 23 5-3 6-9 3-14s-2-11 3-14c9-5 8 51-1 74-3 8-8 35-11 60-13 130-81 272-183 381-109 117-281 207-407 212-29 1-52 6-49 11 3 4-5 5-17 1s-20-3-17 1c3 5-21 9-53 9-34 0-56-4-53-9zm43-2c0-8-19-13-24-6-3 5 1 9 9 9s15-2 15-3zm154-268c156-46 282-174 322-329 29-112 20-204-31-312-79-166-262-278-440-269-88 4-162 30-240 82-250 168-279 511-61 715 121 115 294 158 450 113zm596-416c0-5-2-10-4-10-3 0-8 5-11 10-3 6-1 10 4 10 6 0 11-4 11-10zm-1434-55c1-8-1-17-5-19-4-3-7 6-7 19 0 25 8 25 12 0z"/><path d="m642 1040c-27-11-42-47-42-100 0-65-5-70-70-70-92 0-102-14-103-135 0-90 2-100 23-117 15-12 39-18 74-18 29 0 57-5 64-12s12-32 12-55c0-54 22-98 52-107 39-10 166-7 192 6 29 13 38 34 42 100 1 25 4 50 7 55s27 10 54 11c94 5 103 17 103 146 0 106-7 116-90 123-69 6-83 17-86 63 0 14-2 37-2 53-3 50-30 64-123 65-46 1-94-3-107-8z"/></g></svg>